<mxfile host="app.diagrams.net" agent="Mozilla/5.0 (X11; Linux x86_64; rv:136.0) Gecko/20100101 Firefox/136.0" version="26.1.3">
  <diagram name="Page-1" id="xRWS1WBzW577IBfEN3d0">
    <mxGraphModel dx="5180" dy="3090" grid="1" gridSize="10" guides="1" tooltips="1" connect="1" arrows="1" fold="1" page="1" pageScale="1" pageWidth="850" pageHeight="1100" math="0" shadow="0">
      <root>
        <mxCell id="0" />
        <mxCell id="1" parent="0" />
        <mxCell id="69u_gWqXfP93L-qpnfbu-49" value="" style="rounded=1;whiteSpace=wrap;html=1;dashed=1;dashPattern=8 8;fillColor=#dae8fc;strokeColor=#6c8ebf;" vertex="1" parent="1">
          <mxGeometry x="-360" y="120" width="320" height="400" as="geometry" />
        </mxCell>
        <mxCell id="69u_gWqXfP93L-qpnfbu-7" style="edgeStyle=orthogonalEdgeStyle;rounded=0;orthogonalLoop=1;jettySize=auto;html=1;exitX=0.75;exitY=1;exitDx=0;exitDy=0;" edge="1" parent="1" source="69u_gWqXfP93L-qpnfbu-1" target="69u_gWqXfP93L-qpnfbu-2">
          <mxGeometry relative="1" as="geometry" />
        </mxCell>
        <mxCell id="69u_gWqXfP93L-qpnfbu-8" style="edgeStyle=orthogonalEdgeStyle;rounded=0;orthogonalLoop=1;jettySize=auto;html=1;exitX=0.25;exitY=1;exitDx=0;exitDy=0;entryX=0.25;entryY=0;entryDx=0;entryDy=0;" edge="1" parent="1" source="69u_gWqXfP93L-qpnfbu-1" target="69u_gWqXfP93L-qpnfbu-6">
          <mxGeometry relative="1" as="geometry" />
        </mxCell>
        <mxCell id="69u_gWqXfP93L-qpnfbu-1" value="" style="rounded=0;whiteSpace=wrap;html=1;" vertex="1" parent="1">
          <mxGeometry x="265" y="-150" width="80" height="80" as="geometry" />
        </mxCell>
        <mxCell id="69u_gWqXfP93L-qpnfbu-12" style="edgeStyle=orthogonalEdgeStyle;rounded=0;orthogonalLoop=1;jettySize=auto;html=1;exitX=0.25;exitY=1;exitDx=0;exitDy=0;entryX=0.5;entryY=0;entryDx=0;entryDy=0;" edge="1" parent="1" source="69u_gWqXfP93L-qpnfbu-2" target="69u_gWqXfP93L-qpnfbu-3">
          <mxGeometry relative="1" as="geometry" />
        </mxCell>
        <mxCell id="69u_gWqXfP93L-qpnfbu-13" style="edgeStyle=orthogonalEdgeStyle;rounded=0;orthogonalLoop=1;jettySize=auto;html=1;exitX=0.75;exitY=1;exitDx=0;exitDy=0;" edge="1" parent="1" source="69u_gWqXfP93L-qpnfbu-2" target="69u_gWqXfP93L-qpnfbu-4">
          <mxGeometry relative="1" as="geometry" />
        </mxCell>
        <mxCell id="69u_gWqXfP93L-qpnfbu-2" value="" style="rounded=0;whiteSpace=wrap;html=1;" vertex="1" parent="1">
          <mxGeometry x="425" y="-30" width="80" height="80" as="geometry" />
        </mxCell>
        <mxCell id="69u_gWqXfP93L-qpnfbu-10" style="edgeStyle=orthogonalEdgeStyle;rounded=0;orthogonalLoop=1;jettySize=auto;html=1;exitX=0.5;exitY=1;exitDx=0;exitDy=0;entryX=0.25;entryY=0;entryDx=0;entryDy=0;" edge="1" parent="1" source="69u_gWqXfP93L-qpnfbu-3" target="69u_gWqXfP93L-qpnfbu-5">
          <mxGeometry relative="1" as="geometry" />
        </mxCell>
        <mxCell id="69u_gWqXfP93L-qpnfbu-3" value="" style="rounded=0;whiteSpace=wrap;html=1;" vertex="1" parent="1">
          <mxGeometry x="345" y="90" width="80" height="80" as="geometry" />
        </mxCell>
        <mxCell id="69u_gWqXfP93L-qpnfbu-11" style="edgeStyle=orthogonalEdgeStyle;rounded=0;orthogonalLoop=1;jettySize=auto;html=1;exitX=0.5;exitY=1;exitDx=0;exitDy=0;entryX=0.75;entryY=0;entryDx=0;entryDy=0;" edge="1" parent="1" source="69u_gWqXfP93L-qpnfbu-4" target="69u_gWqXfP93L-qpnfbu-5">
          <mxGeometry relative="1" as="geometry" />
        </mxCell>
        <mxCell id="69u_gWqXfP93L-qpnfbu-4" value="" style="rounded=0;whiteSpace=wrap;html=1;" vertex="1" parent="1">
          <mxGeometry x="505" y="90" width="80" height="80" as="geometry" />
        </mxCell>
        <mxCell id="69u_gWqXfP93L-qpnfbu-9" style="edgeStyle=orthogonalEdgeStyle;rounded=0;orthogonalLoop=1;jettySize=auto;html=1;exitX=0.5;exitY=1;exitDx=0;exitDy=0;entryX=0.75;entryY=0;entryDx=0;entryDy=0;" edge="1" parent="1" source="69u_gWqXfP93L-qpnfbu-5" target="69u_gWqXfP93L-qpnfbu-6">
          <mxGeometry relative="1" as="geometry" />
        </mxCell>
        <mxCell id="69u_gWqXfP93L-qpnfbu-5" value="" style="rounded=0;whiteSpace=wrap;html=1;" vertex="1" parent="1">
          <mxGeometry x="425" y="210" width="80" height="80" as="geometry" />
        </mxCell>
        <mxCell id="69u_gWqXfP93L-qpnfbu-6" value="" style="rounded=0;whiteSpace=wrap;html=1;" vertex="1" parent="1">
          <mxGeometry x="265" y="330" width="80" height="80" as="geometry" />
        </mxCell>
        <mxCell id="69u_gWqXfP93L-qpnfbu-17" value="" style="rounded=0;whiteSpace=wrap;html=1;" vertex="1" parent="1">
          <mxGeometry x="-480" y="160" width="80" height="80" as="geometry" />
        </mxCell>
        <mxCell id="69u_gWqXfP93L-qpnfbu-20" value="" style="rounded=0;whiteSpace=wrap;html=1;" vertex="1" parent="1">
          <mxGeometry x="-160" y="160" width="80" height="80" as="geometry" />
        </mxCell>
        <mxCell id="69u_gWqXfP93L-qpnfbu-22" value="" style="rounded=0;whiteSpace=wrap;html=1;" vertex="1" parent="1">
          <mxGeometry x="-240" y="290" width="80" height="80" as="geometry" />
        </mxCell>
        <mxCell id="69u_gWqXfP93L-qpnfbu-24" value="" style="rounded=0;whiteSpace=wrap;html=1;" vertex="1" parent="1">
          <mxGeometry x="-160" y="400" width="80" height="80" as="geometry" />
        </mxCell>
        <mxCell id="69u_gWqXfP93L-qpnfbu-26" value="" style="rounded=0;whiteSpace=wrap;html=1;" vertex="1" parent="1">
          <mxGeometry x="-320" y="400" width="80" height="80" as="geometry" />
        </mxCell>
        <mxCell id="69u_gWqXfP93L-qpnfbu-27" value="" style="rounded=0;whiteSpace=wrap;html=1;" vertex="1" parent="1">
          <mxGeometry x="-480" y="400" width="80" height="80" as="geometry" />
        </mxCell>
        <mxCell id="69u_gWqXfP93L-qpnfbu-28" value="" style="curved=1;endArrow=classic;html=1;rounded=0;exitX=0;exitY=0.5;exitDx=0;exitDy=0;entryX=0.5;entryY=0;entryDx=0;entryDy=0;" edge="1" parent="1" source="69u_gWqXfP93L-qpnfbu-22" target="69u_gWqXfP93L-qpnfbu-26">
          <mxGeometry width="50" height="50" relative="1" as="geometry">
            <mxPoint x="70" y="320" as="sourcePoint" />
            <mxPoint x="120" y="270" as="targetPoint" />
            <Array as="points">
              <mxPoint x="-280" y="360" />
            </Array>
          </mxGeometry>
        </mxCell>
        <mxCell id="69u_gWqXfP93L-qpnfbu-29" value="" style="curved=1;endArrow=classic;html=1;rounded=0;exitX=0;exitY=0.5;exitDx=0;exitDy=0;entryX=1;entryY=0.5;entryDx=0;entryDy=0;" edge="1" parent="1" source="69u_gWqXfP93L-qpnfbu-24" target="69u_gWqXfP93L-qpnfbu-26">
          <mxGeometry width="50" height="50" relative="1" as="geometry">
            <mxPoint x="-150" y="370" as="sourcePoint" />
            <mxPoint x="-70" y="410" as="targetPoint" />
            <Array as="points">
              <mxPoint x="-200" y="450" />
            </Array>
          </mxGeometry>
        </mxCell>
        <mxCell id="69u_gWqXfP93L-qpnfbu-30" value="" style="curved=1;endArrow=classic;html=1;rounded=0;exitX=0.75;exitY=1;exitDx=0;exitDy=0;entryX=0.5;entryY=0;entryDx=0;entryDy=0;" edge="1" parent="1" source="69u_gWqXfP93L-qpnfbu-20" target="69u_gWqXfP93L-qpnfbu-24">
          <mxGeometry width="50" height="50" relative="1" as="geometry">
            <mxPoint x="10" y="370" as="sourcePoint" />
            <mxPoint x="-50" y="410" as="targetPoint" />
            <Array as="points">
              <mxPoint x="-90" y="320" />
            </Array>
          </mxGeometry>
        </mxCell>
        <mxCell id="69u_gWqXfP93L-qpnfbu-31" value="" style="curved=1;endArrow=classic;html=1;rounded=0;exitX=0.25;exitY=1;exitDx=0;exitDy=0;entryX=0.5;entryY=0;entryDx=0;entryDy=0;" edge="1" parent="1" source="69u_gWqXfP93L-qpnfbu-20" target="69u_gWqXfP93L-qpnfbu-22">
          <mxGeometry width="50" height="50" relative="1" as="geometry">
            <mxPoint x="-50" y="250" as="sourcePoint" />
            <mxPoint x="10" y="290" as="targetPoint" />
            <Array as="points">
              <mxPoint x="-190" y="270" />
            </Array>
          </mxGeometry>
        </mxCell>
        <mxCell id="69u_gWqXfP93L-qpnfbu-32" value="" style="curved=1;endArrow=classic;html=1;rounded=0;exitX=1;exitY=0.5;exitDx=0;exitDy=0;entryX=0;entryY=0.5;entryDx=0;entryDy=0;" edge="1" parent="1" source="69u_gWqXfP93L-qpnfbu-17" target="69u_gWqXfP93L-qpnfbu-20">
          <mxGeometry width="50" height="50" relative="1" as="geometry">
            <mxPoint x="-90" y="250" as="sourcePoint" />
            <mxPoint x="-150" y="290" as="targetPoint" />
            <Array as="points">
              <mxPoint x="-320" y="190" />
            </Array>
          </mxGeometry>
        </mxCell>
        <mxCell id="69u_gWqXfP93L-qpnfbu-33" value="" style="curved=1;endArrow=classic;html=1;rounded=0;exitX=0;exitY=0.5;exitDx=0;exitDy=0;entryX=1;entryY=0.5;entryDx=0;entryDy=0;" edge="1" parent="1" source="69u_gWqXfP93L-qpnfbu-26" target="69u_gWqXfP93L-qpnfbu-27">
          <mxGeometry width="50" height="50" relative="1" as="geometry">
            <mxPoint x="-210" y="130" as="sourcePoint" />
            <mxPoint x="-70" y="170" as="targetPoint" />
            <Array as="points">
              <mxPoint x="-360" y="450" />
            </Array>
          </mxGeometry>
        </mxCell>
        <mxCell id="69u_gWqXfP93L-qpnfbu-34" value="" style="curved=1;endArrow=classic;html=1;rounded=0;exitX=0.5;exitY=1;exitDx=0;exitDy=0;entryX=0.5;entryY=0;entryDx=0;entryDy=0;" edge="1" parent="1" source="69u_gWqXfP93L-qpnfbu-17" target="69u_gWqXfP93L-qpnfbu-27">
          <mxGeometry width="50" height="50" relative="1" as="geometry">
            <mxPoint x="-20" y="360" as="sourcePoint" />
            <mxPoint x="30" y="310" as="targetPoint" />
            <Array as="points">
              <mxPoint x="-460" y="320" />
            </Array>
          </mxGeometry>
        </mxCell>
        <mxCell id="69u_gWqXfP93L-qpnfbu-36" value="" style="rounded=0;whiteSpace=wrap;html=1;" vertex="1" parent="1">
          <mxGeometry x="-1040" y="160" width="80" height="80" as="geometry" />
        </mxCell>
        <mxCell id="69u_gWqXfP93L-qpnfbu-37" value="" style="rounded=0;whiteSpace=wrap;html=1;" vertex="1" parent="1">
          <mxGeometry x="-720" y="160" width="80" height="80" as="geometry" />
        </mxCell>
        <mxCell id="69u_gWqXfP93L-qpnfbu-38" value="" style="rounded=0;whiteSpace=wrap;html=1;" vertex="1" parent="1">
          <mxGeometry x="-800" y="290" width="80" height="80" as="geometry" />
        </mxCell>
        <mxCell id="69u_gWqXfP93L-qpnfbu-39" value="" style="rounded=0;whiteSpace=wrap;html=1;" vertex="1" parent="1">
          <mxGeometry x="-720" y="400" width="80" height="80" as="geometry" />
        </mxCell>
        <mxCell id="69u_gWqXfP93L-qpnfbu-40" value="" style="rounded=0;whiteSpace=wrap;html=1;" vertex="1" parent="1">
          <mxGeometry x="-880" y="400" width="80" height="80" as="geometry" />
        </mxCell>
        <mxCell id="69u_gWqXfP93L-qpnfbu-41" value="" style="rounded=0;whiteSpace=wrap;html=1;" vertex="1" parent="1">
          <mxGeometry x="-1040" y="400" width="80" height="80" as="geometry" />
        </mxCell>
        <mxCell id="69u_gWqXfP93L-qpnfbu-42" value="" style="curved=1;endArrow=classic;html=1;rounded=0;exitX=0;exitY=0.5;exitDx=0;exitDy=0;entryX=0.5;entryY=0;entryDx=0;entryDy=0;" edge="1" parent="1" source="69u_gWqXfP93L-qpnfbu-38" target="69u_gWqXfP93L-qpnfbu-40">
          <mxGeometry width="50" height="50" relative="1" as="geometry">
            <mxPoint x="-490" y="320" as="sourcePoint" />
            <mxPoint x="-440" y="270" as="targetPoint" />
            <Array as="points">
              <mxPoint x="-840" y="360" />
            </Array>
          </mxGeometry>
        </mxCell>
        <mxCell id="69u_gWqXfP93L-qpnfbu-43" value="" style="curved=1;endArrow=classic;html=1;rounded=0;exitX=0;exitY=0.5;exitDx=0;exitDy=0;entryX=1;entryY=0.5;entryDx=0;entryDy=0;" edge="1" parent="1" source="69u_gWqXfP93L-qpnfbu-39" target="69u_gWqXfP93L-qpnfbu-40">
          <mxGeometry width="50" height="50" relative="1" as="geometry">
            <mxPoint x="-710" y="370" as="sourcePoint" />
            <mxPoint x="-630" y="410" as="targetPoint" />
            <Array as="points">
              <mxPoint x="-760" y="450" />
            </Array>
          </mxGeometry>
        </mxCell>
        <mxCell id="69u_gWqXfP93L-qpnfbu-44" value="" style="curved=1;endArrow=classic;html=1;rounded=0;exitX=0.75;exitY=1;exitDx=0;exitDy=0;entryX=0.5;entryY=0;entryDx=0;entryDy=0;" edge="1" parent="1" source="69u_gWqXfP93L-qpnfbu-37" target="69u_gWqXfP93L-qpnfbu-39">
          <mxGeometry width="50" height="50" relative="1" as="geometry">
            <mxPoint x="-550" y="370" as="sourcePoint" />
            <mxPoint x="-610" y="410" as="targetPoint" />
            <Array as="points">
              <mxPoint x="-650" y="320" />
            </Array>
          </mxGeometry>
        </mxCell>
        <mxCell id="69u_gWqXfP93L-qpnfbu-45" value="" style="curved=1;endArrow=classic;html=1;rounded=0;exitX=0.25;exitY=1;exitDx=0;exitDy=0;entryX=0.5;entryY=0;entryDx=0;entryDy=0;" edge="1" parent="1" source="69u_gWqXfP93L-qpnfbu-37" target="69u_gWqXfP93L-qpnfbu-38">
          <mxGeometry width="50" height="50" relative="1" as="geometry">
            <mxPoint x="-610" y="250" as="sourcePoint" />
            <mxPoint x="-550" y="290" as="targetPoint" />
            <Array as="points">
              <mxPoint x="-750" y="270" />
            </Array>
          </mxGeometry>
        </mxCell>
        <mxCell id="69u_gWqXfP93L-qpnfbu-46" value="" style="curved=1;endArrow=classic;html=1;rounded=0;exitX=1;exitY=0.5;exitDx=0;exitDy=0;entryX=0;entryY=0.5;entryDx=0;entryDy=0;" edge="1" parent="1" source="69u_gWqXfP93L-qpnfbu-36" target="69u_gWqXfP93L-qpnfbu-37">
          <mxGeometry width="50" height="50" relative="1" as="geometry">
            <mxPoint x="-650" y="250" as="sourcePoint" />
            <mxPoint x="-710" y="290" as="targetPoint" />
            <Array as="points">
              <mxPoint x="-880" y="190" />
            </Array>
          </mxGeometry>
        </mxCell>
        <mxCell id="69u_gWqXfP93L-qpnfbu-47" value="" style="curved=1;endArrow=classic;html=1;rounded=0;exitX=0;exitY=0.5;exitDx=0;exitDy=0;entryX=1;entryY=0.5;entryDx=0;entryDy=0;" edge="1" parent="1" source="69u_gWqXfP93L-qpnfbu-40" target="69u_gWqXfP93L-qpnfbu-41">
          <mxGeometry width="50" height="50" relative="1" as="geometry">
            <mxPoint x="-770" y="130" as="sourcePoint" />
            <mxPoint x="-630" y="170" as="targetPoint" />
            <Array as="points">
              <mxPoint x="-920" y="450" />
            </Array>
          </mxGeometry>
        </mxCell>
        <mxCell id="69u_gWqXfP93L-qpnfbu-48" value="" style="curved=1;endArrow=classic;html=1;rounded=0;exitX=0.5;exitY=1;exitDx=0;exitDy=0;entryX=0.5;entryY=0;entryDx=0;entryDy=0;" edge="1" parent="1" source="69u_gWqXfP93L-qpnfbu-36" target="69u_gWqXfP93L-qpnfbu-41">
          <mxGeometry width="50" height="50" relative="1" as="geometry">
            <mxPoint x="-580" y="360" as="sourcePoint" />
            <mxPoint x="-530" y="310" as="targetPoint" />
            <Array as="points">
              <mxPoint x="-1020" y="320" />
            </Array>
          </mxGeometry>
        </mxCell>
        <mxCell id="69u_gWqXfP93L-qpnfbu-50" value="" style="rounded=1;whiteSpace=wrap;html=1;dashed=1;dashPattern=8 8;fillColor=#dae8fc;strokeColor=#6c8ebf;" vertex="1" parent="1">
          <mxGeometry x="-1520" y="560" width="320" height="400" as="geometry" />
        </mxCell>
        <mxCell id="69u_gWqXfP93L-qpnfbu-51" value="" style="rounded=0;whiteSpace=wrap;html=1;" vertex="1" parent="1">
          <mxGeometry x="-1080" y="600" width="80" height="80" as="geometry" />
        </mxCell>
        <mxCell id="69u_gWqXfP93L-qpnfbu-52" value="" style="rounded=0;whiteSpace=wrap;html=1;" vertex="1" parent="1">
          <mxGeometry x="-1320" y="600" width="80" height="80" as="geometry" />
        </mxCell>
        <mxCell id="69u_gWqXfP93L-qpnfbu-53" value="" style="rounded=0;whiteSpace=wrap;html=1;" vertex="1" parent="1">
          <mxGeometry x="-1400" y="730" width="80" height="80" as="geometry" />
        </mxCell>
        <mxCell id="69u_gWqXfP93L-qpnfbu-54" value="" style="rounded=0;whiteSpace=wrap;html=1;" vertex="1" parent="1">
          <mxGeometry x="-1320" y="840" width="80" height="80" as="geometry" />
        </mxCell>
        <mxCell id="69u_gWqXfP93L-qpnfbu-55" value="" style="rounded=0;whiteSpace=wrap;html=1;" vertex="1" parent="1">
          <mxGeometry x="-1480" y="840" width="80" height="80" as="geometry" />
        </mxCell>
        <mxCell id="69u_gWqXfP93L-qpnfbu-56" value="" style="rounded=0;whiteSpace=wrap;html=1;" vertex="1" parent="1">
          <mxGeometry x="-1080" y="840" width="80" height="80" as="geometry" />
        </mxCell>
        <mxCell id="69u_gWqXfP93L-qpnfbu-57" value="" style="curved=1;endArrow=classic;html=1;rounded=0;exitX=0;exitY=0.5;exitDx=0;exitDy=0;entryX=0.5;entryY=0;entryDx=0;entryDy=0;" edge="1" parent="1" source="69u_gWqXfP93L-qpnfbu-53" target="69u_gWqXfP93L-qpnfbu-55">
          <mxGeometry width="50" height="50" relative="1" as="geometry">
            <mxPoint x="-1090" y="760" as="sourcePoint" />
            <mxPoint x="-1040" y="710" as="targetPoint" />
            <Array as="points">
              <mxPoint x="-1440" y="800" />
            </Array>
          </mxGeometry>
        </mxCell>
        <mxCell id="69u_gWqXfP93L-qpnfbu-58" value="" style="curved=1;endArrow=classic;html=1;rounded=0;exitX=0;exitY=0.5;exitDx=0;exitDy=0;entryX=1;entryY=0.5;entryDx=0;entryDy=0;" edge="1" parent="1" source="69u_gWqXfP93L-qpnfbu-54" target="69u_gWqXfP93L-qpnfbu-55">
          <mxGeometry width="50" height="50" relative="1" as="geometry">
            <mxPoint x="-1310" y="810" as="sourcePoint" />
            <mxPoint x="-1230" y="850" as="targetPoint" />
            <Array as="points">
              <mxPoint x="-1360" y="890" />
            </Array>
          </mxGeometry>
        </mxCell>
        <mxCell id="69u_gWqXfP93L-qpnfbu-59" value="" style="curved=1;endArrow=classic;html=1;rounded=0;exitX=0.75;exitY=1;exitDx=0;exitDy=0;entryX=0.5;entryY=0;entryDx=0;entryDy=0;" edge="1" parent="1" source="69u_gWqXfP93L-qpnfbu-52" target="69u_gWqXfP93L-qpnfbu-54">
          <mxGeometry width="50" height="50" relative="1" as="geometry">
            <mxPoint x="-1150" y="810" as="sourcePoint" />
            <mxPoint x="-1210" y="850" as="targetPoint" />
            <Array as="points">
              <mxPoint x="-1250" y="760" />
            </Array>
          </mxGeometry>
        </mxCell>
        <mxCell id="69u_gWqXfP93L-qpnfbu-60" value="" style="curved=1;endArrow=classic;html=1;rounded=0;exitX=0.25;exitY=1;exitDx=0;exitDy=0;entryX=0.5;entryY=0;entryDx=0;entryDy=0;" edge="1" parent="1" source="69u_gWqXfP93L-qpnfbu-52" target="69u_gWqXfP93L-qpnfbu-53">
          <mxGeometry width="50" height="50" relative="1" as="geometry">
            <mxPoint x="-1210" y="690" as="sourcePoint" />
            <mxPoint x="-1150" y="730" as="targetPoint" />
            <Array as="points">
              <mxPoint x="-1350" y="710" />
            </Array>
          </mxGeometry>
        </mxCell>
        <mxCell id="69u_gWqXfP93L-qpnfbu-63" value="" style="curved=1;endArrow=classic;html=1;rounded=0;exitX=0.5;exitY=1;exitDx=0;exitDy=0;entryX=0.5;entryY=0;entryDx=0;entryDy=0;" edge="1" parent="1" source="69u_gWqXfP93L-qpnfbu-51" target="69u_gWqXfP93L-qpnfbu-56">
          <mxGeometry width="50" height="50" relative="1" as="geometry">
            <mxPoint x="-620" y="800" as="sourcePoint" />
            <mxPoint x="-570" y="750" as="targetPoint" />
            <Array as="points">
              <mxPoint x="-1060" y="760" />
            </Array>
          </mxGeometry>
        </mxCell>
        <mxCell id="69u_gWqXfP93L-qpnfbu-64" value="" style="whiteSpace=wrap;html=1;aspect=fixed;fillColor=#dae8fc;strokeColor=#6c8ebf;" vertex="1" parent="1">
          <mxGeometry x="-970" y="720" width="80" height="80" as="geometry" />
        </mxCell>
        <mxCell id="69u_gWqXfP93L-qpnfbu-65" value="" style="curved=1;endArrow=classic;html=1;rounded=0;exitX=1;exitY=0.5;exitDx=0;exitDy=0;entryX=0.5;entryY=0;entryDx=0;entryDy=0;" edge="1" parent="1" source="69u_gWqXfP93L-qpnfbu-51" target="69u_gWqXfP93L-qpnfbu-64">
          <mxGeometry width="50" height="50" relative="1" as="geometry">
            <mxPoint x="-1030" y="690" as="sourcePoint" />
            <mxPoint x="-1030" y="850" as="targetPoint" />
            <Array as="points">
              <mxPoint x="-930" y="660" />
            </Array>
          </mxGeometry>
        </mxCell>
        <mxCell id="69u_gWqXfP93L-qpnfbu-66" value="" style="curved=1;endArrow=classic;html=1;rounded=0;exitX=0.5;exitY=1;exitDx=0;exitDy=0;entryX=1;entryY=0.5;entryDx=0;entryDy=0;" edge="1" parent="1" source="69u_gWqXfP93L-qpnfbu-64" target="69u_gWqXfP93L-qpnfbu-56">
          <mxGeometry width="50" height="50" relative="1" as="geometry">
            <mxPoint x="-990" y="650" as="sourcePoint" />
            <mxPoint x="-920" y="730" as="targetPoint" />
            <Array as="points">
              <mxPoint x="-940" y="850" />
            </Array>
          </mxGeometry>
        </mxCell>
        <mxCell id="69u_gWqXfP93L-qpnfbu-67" value="" style="ellipse;whiteSpace=wrap;html=1;aspect=fixed;fillColor=#dae8fc;strokeColor=#6c8ebf;" vertex="1" parent="1">
          <mxGeometry x="-1380" y="940" width="40" height="40" as="geometry" />
        </mxCell>
        <mxCell id="69u_gWqXfP93L-qpnfbu-68" value="" style="ellipse;whiteSpace=wrap;html=1;aspect=fixed;fillColor=#dae8fc;strokeColor=#6c8ebf;" vertex="1" parent="1">
          <mxGeometry x="-1380" y="540" width="40" height="40" as="geometry" />
        </mxCell>
        <mxCell id="69u_gWqXfP93L-qpnfbu-69" value="" style="curved=1;endArrow=classic;html=1;rounded=0;exitX=0.5;exitY=0;exitDx=0;exitDy=0;entryX=0.5;entryY=0;entryDx=0;entryDy=0;" edge="1" parent="1" source="69u_gWqXfP93L-qpnfbu-50" target="69u_gWqXfP93L-qpnfbu-52">
          <mxGeometry width="50" height="50" relative="1" as="geometry">
            <mxPoint x="-1250" y="690" as="sourcePoint" />
            <mxPoint x="-1270" y="850" as="targetPoint" />
            <Array as="points">
              <mxPoint x="-1300" y="570" />
            </Array>
          </mxGeometry>
        </mxCell>
        <mxCell id="69u_gWqXfP93L-qpnfbu-71" value="" style="curved=1;endArrow=classic;html=1;rounded=0;exitX=0.5;exitY=1;exitDx=0;exitDy=0;entryX=0.5;entryY=0.5;entryDx=0;entryDy=0;entryPerimeter=0;" edge="1" parent="1" source="69u_gWqXfP93L-qpnfbu-55" target="69u_gWqXfP93L-qpnfbu-67">
          <mxGeometry width="50" height="50" relative="1" as="geometry">
            <mxPoint x="-1390" y="780" as="sourcePoint" />
            <mxPoint x="-1430" y="850" as="targetPoint" />
            <Array as="points">
              <mxPoint x="-1420" y="950" />
            </Array>
          </mxGeometry>
        </mxCell>
        <mxCell id="69u_gWqXfP93L-qpnfbu-72" value="" style="rounded=1;whiteSpace=wrap;html=1;dashed=1;dashPattern=8 8;fillColor=#dae8fc;strokeColor=#6c8ebf;" vertex="1" parent="1">
          <mxGeometry y="720" width="320" height="400" as="geometry" />
        </mxCell>
        <mxCell id="69u_gWqXfP93L-qpnfbu-98" style="edgeStyle=orthogonalEdgeStyle;rounded=0;orthogonalLoop=1;jettySize=auto;html=1;exitX=0.25;exitY=1;exitDx=0;exitDy=0;entryX=0.25;entryY=0;entryDx=0;entryDy=0;" edge="1" parent="1" source="69u_gWqXfP93L-qpnfbu-73" target="69u_gWqXfP93L-qpnfbu-78">
          <mxGeometry relative="1" as="geometry" />
        </mxCell>
        <mxCell id="69u_gWqXfP93L-qpnfbu-100" style="edgeStyle=orthogonalEdgeStyle;rounded=0;orthogonalLoop=1;jettySize=auto;html=1;exitX=0.75;exitY=1;exitDx=0;exitDy=0;" edge="1" parent="1" source="69u_gWqXfP93L-qpnfbu-73" target="69u_gWqXfP93L-qpnfbu-97">
          <mxGeometry relative="1" as="geometry" />
        </mxCell>
        <mxCell id="69u_gWqXfP93L-qpnfbu-73" value="" style="rounded=0;whiteSpace=wrap;html=1;" vertex="1" parent="1">
          <mxGeometry x="440" y="600" width="80" height="80" as="geometry" />
        </mxCell>
        <mxCell id="69u_gWqXfP93L-qpnfbu-91" style="edgeStyle=orthogonalEdgeStyle;rounded=0;orthogonalLoop=1;jettySize=auto;html=1;exitX=0.75;exitY=1;exitDx=0;exitDy=0;entryX=0.5;entryY=0;entryDx=0;entryDy=0;" edge="1" parent="1" source="69u_gWqXfP93L-qpnfbu-74" target="69u_gWqXfP93L-qpnfbu-76">
          <mxGeometry relative="1" as="geometry" />
        </mxCell>
        <mxCell id="69u_gWqXfP93L-qpnfbu-92" style="edgeStyle=orthogonalEdgeStyle;rounded=0;orthogonalLoop=1;jettySize=auto;html=1;exitX=0.25;exitY=1;exitDx=0;exitDy=0;entryX=0.5;entryY=0;entryDx=0;entryDy=0;" edge="1" parent="1" source="69u_gWqXfP93L-qpnfbu-74" target="69u_gWqXfP93L-qpnfbu-75">
          <mxGeometry relative="1" as="geometry" />
        </mxCell>
        <mxCell id="69u_gWqXfP93L-qpnfbu-74" value="" style="rounded=0;whiteSpace=wrap;html=1;" vertex="1" parent="1">
          <mxGeometry x="120" y="760" width="80" height="80" as="geometry" />
        </mxCell>
        <mxCell id="69u_gWqXfP93L-qpnfbu-93" style="edgeStyle=orthogonalEdgeStyle;rounded=0;orthogonalLoop=1;jettySize=auto;html=1;exitX=0.5;exitY=1;exitDx=0;exitDy=0;entryX=0.25;entryY=0;entryDx=0;entryDy=0;" edge="1" parent="1" source="69u_gWqXfP93L-qpnfbu-75" target="69u_gWqXfP93L-qpnfbu-77">
          <mxGeometry relative="1" as="geometry" />
        </mxCell>
        <mxCell id="69u_gWqXfP93L-qpnfbu-75" value="" style="rounded=0;whiteSpace=wrap;html=1;" vertex="1" parent="1">
          <mxGeometry x="40" y="880" width="80" height="80" as="geometry" />
        </mxCell>
        <mxCell id="69u_gWqXfP93L-qpnfbu-94" style="edgeStyle=orthogonalEdgeStyle;rounded=0;orthogonalLoop=1;jettySize=auto;html=1;exitX=0.5;exitY=1;exitDx=0;exitDy=0;entryX=0.75;entryY=0;entryDx=0;entryDy=0;" edge="1" parent="1" source="69u_gWqXfP93L-qpnfbu-76" target="69u_gWqXfP93L-qpnfbu-77">
          <mxGeometry relative="1" as="geometry" />
        </mxCell>
        <mxCell id="69u_gWqXfP93L-qpnfbu-76" value="" style="rounded=0;whiteSpace=wrap;html=1;" vertex="1" parent="1">
          <mxGeometry x="200" y="880" width="80" height="80" as="geometry" />
        </mxCell>
        <mxCell id="69u_gWqXfP93L-qpnfbu-96" style="edgeStyle=orthogonalEdgeStyle;rounded=0;orthogonalLoop=1;jettySize=auto;html=1;exitX=0.5;exitY=1;exitDx=0;exitDy=0;entryX=0.5;entryY=0;entryDx=0;entryDy=0;" edge="1" parent="1" source="69u_gWqXfP93L-qpnfbu-77" target="69u_gWqXfP93L-qpnfbu-87">
          <mxGeometry relative="1" as="geometry" />
        </mxCell>
        <mxCell id="69u_gWqXfP93L-qpnfbu-77" value="" style="rounded=0;whiteSpace=wrap;html=1;" vertex="1" parent="1">
          <mxGeometry x="120" y="1000" width="80" height="80" as="geometry" />
        </mxCell>
        <mxCell id="69u_gWqXfP93L-qpnfbu-78" value="" style="rounded=0;whiteSpace=wrap;html=1;" vertex="1" parent="1">
          <mxGeometry x="440" y="1160" width="80" height="80" as="geometry" />
        </mxCell>
        <mxCell id="69u_gWqXfP93L-qpnfbu-87" value="" style="ellipse;whiteSpace=wrap;html=1;aspect=fixed;fillColor=#dae8fc;strokeColor=#6c8ebf;" vertex="1" parent="1">
          <mxGeometry x="140" y="1100" width="40" height="40" as="geometry" />
        </mxCell>
        <mxCell id="69u_gWqXfP93L-qpnfbu-95" style="edgeStyle=orthogonalEdgeStyle;rounded=0;orthogonalLoop=1;jettySize=auto;html=1;exitX=0.5;exitY=1;exitDx=0;exitDy=0;entryX=0.5;entryY=0;entryDx=0;entryDy=0;" edge="1" parent="1" source="69u_gWqXfP93L-qpnfbu-88" target="69u_gWqXfP93L-qpnfbu-74">
          <mxGeometry relative="1" as="geometry" />
        </mxCell>
        <mxCell id="69u_gWqXfP93L-qpnfbu-88" value="" style="ellipse;whiteSpace=wrap;html=1;aspect=fixed;fillColor=#dae8fc;strokeColor=#6c8ebf;" vertex="1" parent="1">
          <mxGeometry x="140" y="700" width="40" height="40" as="geometry" />
        </mxCell>
        <mxCell id="69u_gWqXfP93L-qpnfbu-99" style="edgeStyle=orthogonalEdgeStyle;rounded=0;orthogonalLoop=1;jettySize=auto;html=1;exitX=0.5;exitY=1;exitDx=0;exitDy=0;entryX=0.75;entryY=0;entryDx=0;entryDy=0;" edge="1" parent="1" source="69u_gWqXfP93L-qpnfbu-97" target="69u_gWqXfP93L-qpnfbu-78">
          <mxGeometry relative="1" as="geometry" />
        </mxCell>
        <mxCell id="69u_gWqXfP93L-qpnfbu-97" value="" style="rounded=0;whiteSpace=wrap;html=1;fillColor=#dae8fc;strokeColor=#6c8ebf;" vertex="1" parent="1">
          <mxGeometry x="520" y="720" width="320" height="400" as="geometry" />
        </mxCell>
      </root>
    </mxGraphModel>
  </diagram>
</mxfile>
